PathFileType	4	(X/Y/Z)	/Users/mathieubourgeois/Desktop/Analyse/Traitement/Sujet_08/Data/Transformed_Sujet_08_velo_100.trc
DataRate	CameraRate	NumFrames	NumMarkers	Units	OrigDataRate	OrigDataStartFrame	OrigNumFrames
120.000000	120.000000	4	35	mm	120.000000	232	1862
Frame#	Time	RFHD			RANE			STRN			LANI			LKNE			T10			RHUM			RWRB			C7			LFWT			LTOE			RTOE			LWRA			LBWT			RBWT			RFWT			LKNI			RKNI			RKNE			LANE			RANI			LHEE			LHUM			LRAD			RRAD			RWRA			LWRB			LFHD			LBHD			RBHD			RSHO			LSHO			CLAV			LCAR			RCAR			
		X1	Y1	Z1	X2	Y2	Z2	X3	Y3	Z3	X4	Y4	Z4	X5	Y5	Z5	X6	Y6	Z6	X7	Y7	Z7	X8	Y8	Z8	X9	Y9	Z9	X10	Y10	Z10	X11	Y11	Z11	X12	Y12	Z12	X13	Y13	Z13	X14	Y14	Z14	X15	Y15	Z15	X16	Y16	Z16	X17	Y17	Z17	X18	Y18	Z18	X19	Y19	Z19	X20	Y20	Z20	X21	Y21	Z21	X22	Y22	Z22	X23	Y23	Z23	X24	Y24	Z24	X25	Y25	Z25	X26	Y26	Z26	X27	Y27	Z27	X28	Y28	Z28	X29	Y29	Z29	X30	Y30	Z30	X31	Y31	Z31	X32	Y32	Z32	X33	Y33	Z33	X34	Y34	Z34	X35	Y35	Z35	

233	1.933333333333333	282.2368774414062	1358.653198242188	83.98698425292963	-288.5569458007812	519.5948486328125	184.0778350830078	-45.69312286376953	1153.48974609375	20.12916564941398	-31.95925140380859	373.5588073730469	-72.45532989501956	0.920948326587694	787.8790893554688	-138.7325439453126	-193.5563201904297	1348.146850585938	24.99562263488759	133.927017211914	1061.164672851562	215.5292816162109	334.2612304687499	903.6482543945312	256.6856384277344	43.70396423339844	1421.352294921875	21.68078041076652	-250.8066558837891	1094.787475585938	-99.01350402832041	130.9659881591797	277.8566589355469	-108.7733764648438	-195.1371002197266	346.0088195800781	137.152603149414	354.5705871582031	939.1155395507812	-173.8579711914062	-394.3158874511719	1153.06298828125	-33.80192947387707	-392.9616088867188	1149.771606445312	99.70762634277332	-236.7320404052735	1084.73291015625	132.7740936279296	-14.16150093078613	714.7916870117188	-36.96842956542973	-14.78148841857911	738.0450439453125	90.41429901123043	-15.17356681823733	796.5634765625	195.8889770507812	-63.72113037109373	363.5062866210938	-157.1745147705078	-263.4165954589844	518.162841796875	104.9753952026367	-109.8549728393555	341.2411499023438	-116.3215866088867	118.5146484375	1053.333862304688	-191.2383575439453	161.3917388916016	1080.231689453125	-254.4878692626953	170.2498474121093	1081.361572265625	265.9141845703124	356.4507446289062	926.5830078125	189.4067993164062	328.9699401855469	892.1475830078125	-226.3952178955078	292.1859436035156	1359.00048828125	-44.5287475585938	205.9078979492188	1487.713256835938	-62.74850082397467	199.7543029785156	1504.287475585938	76.06428527832026	71.61055755615233	1353.57568359375	148.4305572509765	61.437068939209	1347.057739257812	-128.0108795166016	62.15603256225586	1285.308471679688	17.69182014465325	424.7151489257813	914.0682373046875	-253.6439056396484	434.4284667968749	910.3191528320312	275.4524536132812	
234	1.941666666666667	283.4732971191406	1358.970947265625	84.59391784667963	-283.5444030761719	535.6092529296875	183.973159790039	-45.36831665039062	1153.727172851562	20.99810218811027	-37.58948516845702	359.1513061523438	-72.67658233642581	-8.61699962615965	773.7454223632812	-140.2265777587891	-193.1216125488281	1348.27294921875	24.69482040405263	134.1093444824218	1061.240112304688	215.5277252197265	334.4148254394531	903.6927490234375	256.3618774414062	44.09788513183594	1421.5302734375	22.7429828643798	-249.8953857421875	1094.296020507812	-99.54293823242197	125.3623657226563	261.85009765625	-108.861457824707	-188.5794830322266	363.1677551269531	137.3273468017578	355.1166687011719	938.8441772460938	-174.0597686767578	-393.3549499511719	1153.200439453125	-35.31793594360364	-392.8376770019531	1150.411376953125	98.21798706054676	-236.4747161865235	1085.181640625	131.0770568847655	-24.19678497314453	701.0330200195312	-38.00209045410161	-8.88759994506837	750.1867065429688	91.85013580322261	-8.552678108215357	809.4102172851562	196.7962341308593	-69.71868896484374	349.1024475097656	-157.1515045166016	-257.6514892578125	534.1997680664062	104.8514709472656	-115.4187850952148	326.4451293945312	-114.3753890991211	119.2450332641602	1053.675048828125	-190.7379913330078	162.1383514404297	1080.73046875	-253.8941650390625	170.3972473144531	1081.283203125	265.9949645996093	356.6039428710938	926.6343383789062	189.0777740478516	329.16064453125	892.0186767578125	-226.6251068115235	292.5830688476562	1359.303100585938	-43.44616699218755	206.3056182861328	1488.061157226562	-61.4931602478028	200.1051635742188	1504.382446289062	77.36312866210932	71.76776123046874	1353.736938476562	149.4988861083984	62.14336013793947	1347.276489257812	-126.9601593017579	62.51905822753906	1285.511108398438	18.68282127380364	424.9738464355469	913.8349609375	-253.9823303222656	434.5930480957031	910.318115234375	275.0719299316406	
235	1.95	283.9283447265625	1359.125122070312	85.66387176513666	-277.7489318847656	550.921142578125	183.8068237304687	-44.98683929443359	1154.0751953125	21.91528892517082	-44.56781005859374	345.978759765625	-73.39202117919923	-18.69492340087889	760.4614868164062	-140.9832611083985	-192.5835876464844	1348.517700195312	24.49917602539052	134.4277191162109	1061.474365234375	215.41064453125	334.5928955078124	903.7841186523438	256.0199584960938	44.58124542236328	1421.807006835938	23.73477172851554	-249.0006256103516	1093.994262695312	-100.0292510986329	117.1509323120117	246.6389617919922	-109.6235885620117	-180.5618133544922	380.0055236816406	137.5931701660156	356.3994140625	938.7357788085938	-174.2908172607422	-392.3153686523438	1153.477905273438	-36.79935073852551	-392.6026306152344	1151.179443359375	96.65399932861317	-236.3390197753907	1085.883056640625	130.2998046874999	-34.3610496520996	688.1820068359375	-38.69646835327153	-1.6238752603531	761.973388671875	91.99835968017574	-2.405786275863672	822.3131103515625	197.6719360351562	-77.11045074462889	335.4873962402344	-157.5518493652344	-251.6478729248047	549.4408569335938	104.7364044189453	-122.4654388427734	313.5730285644531	-114.4760513305664	120.076644897461	1054.098266601562	-190.1809997558594	163.0450439453125	1081.246826171875	-253.3352508544922	170.6582641601562	1081.357788085938	265.9607238769531	356.6958923339844	926.73095703125	188.7050018310547	329.4013671875	891.8295288085938	-226.8240814208985	293.0843505859375	1359.635009765625	-42.38311386108403	206.80078125	1488.401489257812	-60.27074050903327	200.5549926757812	1504.53955078125	78.59692382812494	71.90797424316405	1354.0859375	150.4863128662109	62.99925994873048	1347.607055664062	-125.8803253173829	62.94737243652344	1285.769165039062	19.64982604980462	425.2547302246094	913.616943359375	-254.3292388916016	434.7514343261718	910.3407592773438	274.7136535644531	
236	1.958333333333333	284.4647827148438	1359.32763671875	86.72776031494135	-271.3480529785156	565.05859375	183.3932800292968	-44.44486236572266	1154.473876953125	22.66102790832512	-52.77652740478515	333.87890625	-74.26461791992189	-28.99414443969725	748.1485595703125	-141.5985717773438	-191.9391326904297	1348.761962890625	24.18205070495595	134.791015625	1061.870239257812	215.1813354492187	334.7442321777343	903.928955078125	255.6942749023437	45.17909240722656	1422.125732421875	24.67597579956047	-248.1439361572266	1093.904052734375	-100.4546813964845	108.1955795288086	232.2264251708984	-109.9491348266602	-171.2003173828125	396.320556640625	137.9223327636718	356.8526916503906	938.4254150390625	-174.5181732177734	-391.3112487792969	1153.873901367188	-38.15861892700207	-392.2623596191406	1151.920654296875	94.94158172607411	-236.2296295166016	1086.706420898438	129.8203735351562	-44.77711105346679	676.5592041015625	-38.96921539306646	7.446156501770008	776.8125	92.74907684326168	3.660689592361426	835.2047729492188	198.2656097412109	-85.76668548583983	323.40380859375	-158.2411346435547	-246.4818267822266	563.8126220703125	104.5898208618163	-130.6632080078125	302.4595947265625	-115.7318878173828	120.9487838745117	1054.61767578125	-189.7230987548828	163.9545135498047	1081.858276367188	-252.8459930419922	170.9848022460937	1081.532104492188	265.8711242675781	356.8657531738281	926.815673828125	188.3134460449219	329.6309204101562	891.6469116210938	-227.0714721679688	293.6898193359375	1360.033325195312	-41.33489227294927	207.3623046875	1488.760131835938	-59.0521316528321	201.0407104492188	1504.788940429688	79.85231018066401	72.23710632324217	1354.543701171875	151.4277038574218	63.95137023925783	1348.002807617188	-124.8288269042969	63.50620651245117	1286.101440429688	20.56055450439446	425.4980163574219	913.374755859375	-254.6763916015625	434.8852539062499	910.396728515625	274.3796691894531	
